# xmcd
#
# Track frame offsets: 
#        150
#        16897
#        36557
#        58523
#        90829
#        117886
#        140277
#        162086
#        181941
#        207535
#        220998
#        242443
#        262359
#        288643
#
# Disc length: 4063 seconds
#
# Revision: 0
# Processed by: cddbd v1.5.2PL0 Copyright (c) Steve Scherf et al.
# Submitted via: ExactAudioCopy v0.99pb5
#
DISCID=cb0fdd0e
DTITLE=Paul and Fred - Live In The UK 2008
DYEAR=2008
DGENRE=Folk
TTITLE0=Ain't Hag Enough Fun
TTITLE1=Hate To Lose Your Lovin'
TTITLE2=Honest Man
TTITLE3=All That You Dream
TTITLE4=Clownin'
TTITLE5=Love Sweet Love
TTITLE6=Heaven Forsaken
TTITLE7=Eula
TTITLE8=Fool Yourself
TTITLE9=Missin' You
TTITLE10=A Political Blues
TTITLE11=Old Folks Boogie
TTITLE12=Down On The Farm
TTITLE13=Bid You Goodnight
EXTD=
EXTT0=
EXTT1=
EXTT2=
EXTT3=
EXTT4=
EXTT5=
EXTT6=
EXTT7=
EXTT8=
EXTT9=
EXTT10=
EXTT11=
EXTT12=
EXTT13=
PLAYORDER=
